<?xml version="1.0" standalone="no"?>
<!DOCTYPE svg PUBLIC "-//W3C//DTD SVG 20010904//EN"
 "http://www.w3.org/TR/2001/REC-SVG-20010904/DTD/svg10.dtd">
<svg version="1.0" xmlns="http://www.w3.org/2000/svg"
 width="2377.000000pt" height="329.000000pt" viewBox="0 0 2377.000000 329.000000"
 preserveAspectRatio="xMidYMid meet">
<metadata>
Created by potrace 1.13, written by Peter Selinger 2001-2015
</metadata>
<g transform="translate(0.000000,329.000000) scale(0.100000,-0.100000)"
fill="#D42C30" stroke="none">
<path d="M495 3249 c-57 -16 -80 -54 -127 -209 l-44 -145 -60 -5 c-61 -5 -106
-26 -122 -57 -23 -45 -112 -356 -112 -393 0 -32 7 -48 33 -77 30 -32 41 -37
90 -41 44 -3 57 -8 57 -21 0 -9 9 -118 21 -243 l22 -227 -27 -31 c-14 -17 -26
-40 -26 -50 0 -11 20 -226 45 -479 25 -253 45 -469 45 -482 0 -12 15 -36 34
-54 l35 -33 25 -278 c15 -154 30 -295 36 -315 5 -19 21 -46 36 -60 l26 -24
739 -3 c805 -3 777 -4 815 53 12 18 24 103 45 326 l28 302 32 26 32 27 48 494
c27 272 46 505 43 517 -4 13 -16 30 -27 38 l-21 15 18 202 c10 112 20 224 23
251 l6 47 42 0 c73 0 135 57 135 125 0 33 -93 342 -116 387 -19 38 -48 52
-119 58 l-60 5 -22 70 c-12 39 -32 103 -44 143 -25 86 -57 128 -107 142 -46
12 -1433 12 -1477 -1z m1390 -259 c7 -20 16 -50 20 -68 l7 -32 -676 0 c-451 0
-676 3 -676 10 0 6 7 37 17 70 l16 60 640 -2 640 -3 12 -35z m283 -382 l20
-63 -951 -3 c-523 -1 -952 -1 -953 1 -3 3 18 80 31 115 3 9 196 12 919 12
l915 0 19 -62z m-132 -325 c-3 -21 -12 -121 -21 -223 -9 -102 -18 -195 -21
-207 l-4 -23 -758 0 -758 0 -17 198 c-10 108 -21 218 -24 245 l-6 47 808 0
807 0 -6 -37z m-664 -657 c83 -39 152 -105 190 -184 31 -63 33 -73 33 -177 0
-101 -2 -115 -28 -168 -77 -155 -253 -247 -419 -218 -128 22 -235 101 -293
217 -28 55 -30 67 -30 169 0 104 2 114 33 177 49 99 150 182 256 209 17 5 69
7 116 5 67 -3 97 -9 142 -30z m513 -943 c-2 -16 -12 -111 -20 -213 -9 -102
-18 -195 -21 -208 l-4 -22 -608 0 -608 0 -18 203 c-9 111 -20 217 -23 235 l-5
32 656 0 656 0 -5 -27z"/>
<path d="M1096 1581 c-158 -64 -243 -211 -214 -371 23 -124 109 -224 225 -260
82 -25 124 -25 206 0 233 72 307 373 135 550 -86 89 -242 125 -352 81z m169
-138 c-13 -32 -55 -206 -51 -210 5 -6 37 50 81 145 l38 82 47 0 48 0 -34 -105
c-18 -58 -36 -122 -40 -143 -7 -34 -6 -36 10 -23 21 18 31 8 17 -17 -14 -26
-69 -72 -86 -72 -32 0 -48 32 -41 84 l5 51 -30 -53 c-38 -65 -69 -88 -98 -72
-17 9 -21 21 -21 63 l-1 52 -16 -30 c-35 -67 -81 -102 -113 -85 -16 8 -20 21
-20 60 l0 50 44 0 c34 0 45 -4 48 -17 5 -22 65 93 99 190 l24 67 48 0 c43 0
48 -2 42 -17z"/>
<path d="M15398 3187 c-31 -35 -68 -77 -82 -94 l-27 -32 93 -100 93 -101 195
0 195 1 88 98 c48 55 87 102 87 106 0 4 -32 44 -72 89 -40 44 -75 85 -79 90
-4 4 -36 -15 -71 -43 l-63 -51 -88 0 -89 0 -58 50 c-32 28 -59 50 -61 50 -2
-1 -29 -29 -61 -63z"/>
<path d="M21457 2592 l-177 -177 0 -807 0 -807 173 -185 172 -186 225 1 225 0
173 184 172 184 0 808 0 808 -177 177 -178 178 -215 0 -215 0 -178 -178z m576
-220 l87 -87 0 -680 0 -680 -86 -92 -86 -93 -98 0 -98 0 -86 91 -86 92 0 681
0 681 87 87 88 88 95 0 95 0 88 -88z"/>
<path d="M5125 2718 c-6 -18 -335 -2245 -335 -2269 0 -19 8 -19 152 -17 l153
3 27 180 c15 99 34 231 44 292 l17 113 221 0 222 0 43 -288 c24 -158 45 -290
48 -294 2 -5 71 -8 154 -8 135 0 149 2 149 18 0 9 -76 526 -168 1147 l-168
1130 -277 3 c-217 2 -278 0 -282 -10z m295 -305 c0 -4 36 -247 80 -540 44
-293 80 -535 80 -538 0 -3 -79 -5 -175 -5 -130 0 -175 3 -175 12 0 16 149
1026 155 1056 5 19 35 33 35 15z"/>
<path d="M6887 2723 c-4 -3 -7 -53 -7 -110 l0 -103 -133 0 -132 0 -173 -173
-172 -172 0 -583 0 -583 173 -183 172 -184 132 -1 132 -1 3 -97 3 -98 153 -3
152 -3 0 101 0 100 133 0 132 1 173 184 172 184 0 583 0 583 -173 173 -172
172 -133 0 -132 0 0 110 0 110 -148 0 c-82 0 -152 -3 -155 -7z m-7 -1153 l0
-640 -64 0 -64 0 -91 98 -90 97 -1 455 0 455 87 87 88 88 67 0 68 0 0 -640z
m532 553 l88 -88 0 -455 0 -455 -91 -98 -91 -97 -64 0 -64 0 0 640 0 640 67 0
68 0 87 -87z"/>
<path d="M8210 1580 l0 -1150 500 0 500 0 0 155 0 155 -350 0 -350 0 0 335 0
335 275 0 275 0 0 155 0 155 -275 0 -275 0 0 350 0 350 330 0 331 0 -3 153 -3
152 -477 3 -478 2 0 -1150z"/>
<path d="M9390 2590 l0 -140 195 0 195 0 2 -1007 3 -1008 153 -3 152 -3 0
1011 0 1010 200 0 200 0 0 140 0 140 -550 0 -550 0 0 -140z"/>
<path d="M10755 2718 c-3 -7 -4 -524 -3 -1148 l3 -1135 500 0 500 0 0 150 0
150 -347 3 -348 2 0 335 0 335 273 2 272 3 3 153 3 152 -276 0 -275 0 0 350 0
350 325 0 325 0 0 155 0 155 -475 0 c-371 0 -477 -3 -480 -12z"/>
<path d="M12120 1580 l0 -1150 150 0 150 0 0 370 0 370 214 0 213 0 182 190
181 189 0 413 -1 413 -183 178 -184 177 -361 0 -361 0 0 -1150z m692 753 l88
-88 0 -287 0 -288 -87 -94 -88 -94 -152 -1 -153 -1 0 470 0 470 152 0 153 0
87 -87z"/>
<path d="M17395 2698 c-3 -18 -66 -456 -140 -973 -75 -517 -138 -954 -141
-972 l-6 -32 -87 -3 -86 -3 -3 -142 -3 -143 226 0 c124 0 225 1 225 3 1 1 65
450 143 997 l143 995 122 3 122 3 0 -1001 0 -1000 150 0 150 0 0 1150 0 1150
-405 0 -404 0 -6 -32z"/>
<path d="M18605 2718 c-3 -7 -4 -524 -3 -1148 l3 -1135 365 -3 365 -2 183 182
182 182 0 405 -1 406 -177 187 -177 187 -217 0 -218 1 0 375 0 375 -150 0
c-111 0 -152 -3 -155 -12z m693 -1137 l92 -100 0 -283 0 -283 -87 -87 -88 -88
-152 0 -153 0 0 470 0 470 148 0 148 0 92 -99z"/>
<path d="M22647 2723 c-4 -3 -7 -66 -7 -140 l0 -133 200 0 200 0 0 -1010 0
-1010 155 0 155 0 0 1010 0 1010 200 0 200 0 0 140 0 140 -548 0 c-302 0 -552
-3 -555 -7z"/>
<path d="M3320 2565 l0 -154 128 -3 127 -3 -47 -28 -48 -28 0 -960 0 -960 153
3 152 3 3 533 2 532 58 0 58 0 244 -522 c134 -288 248 -529 253 -535 7 -10 54
-13 173 -13 90 0 164 2 164 4 0 2 -118 255 -261 563 -144 307 -272 581 -285
609 l-23 51 250 528 c137 290 249 529 249 531 0 2 -75 4 -167 4 l-168 0 -215
-455 -215 -455 -57 0 -58 0 0 455 0 455 -235 0 -235 0 0 -155z"/>
<path d="M13580 1575 l0 -1145 162 2 162 3 181 570 c103 323 218 709 265 892
47 177 86 320 87 319 2 -1 -6 -157 -17 -347 -15 -265 -20 -469 -20 -891 l0
-548 155 0 155 0 0 1145 0 1145 -201 -2 -201 -3 -125 -390 c-97 -307 -145
-478 -224 -805 -55 -228 -102 -416 -104 -418 -1 -2 -1 25 1 60 18 282 34 812
34 1151 l0 407 -155 0 -155 0 0 -1145z"/>
<path d="M15110 1575 l0 -1145 161 2 162 3 178 560 c98 308 217 709 266 892
48 182 88 331 90 330 1 -1 -7 -151 -18 -332 -14 -251 -19 -464 -19 -893 l0
-563 153 3 152 3 3 1143 2 1142 -202 -2 -201 -3 -132 -415 c-104 -328 -151
-497 -225 -807 -51 -216 -95 -392 -96 -390 -1 1 6 182 17 402 11 238 18 565
19 808 l0 407 -155 0 -155 0 0 -1145z"/>
<path d="M20070 1575 l0 -1146 153 3 152 3 3 987 2 988 323 2 322 3 0 150 0
150 -477 3 -478 2 0 -1145z"/>
</g>
</svg>
