<?xml version="1.0" standalone="no"?>
<!DOCTYPE svg PUBLIC "-//W3C//DTD SVG 20010904//EN"
 "http://www.w3.org/TR/2001/REC-SVG-20010904/DTD/svg10.dtd">
<svg version="1.0" xmlns="http://www.w3.org/2000/svg"
 width="254.000000pt" height="329.000000pt" viewBox="0 0 254.000000 329.000000"
 preserveAspectRatio="xMidYMid meet">
<metadata>
Created by potrace 1.13, written by Peter Selinger 2001-2015
</metadata>
<g transform="translate(0.000000,329.000000) scale(0.100000,-0.100000)"
fill="#D42C30" fill-opacity=".5" stroke="none">
<path d="M495 3249 c-57 -16 -80 -54 -127 -209 l-44 -145 -60 -5 c-61 -5 -106
-26 -122 -57 -23 -45 -112 -356 -112 -393 0 -32 7 -48 33 -77 30 -32 41 -37
90 -41 44 -3 57 -8 57 -21 0 -9 9 -118 21 -243 l22 -227 -27 -31 c-14 -17 -26
-40 -26 -50 0 -11 20 -226 45 -479 25 -253 45 -469 45 -482 0 -12 15 -36 34
-54 l35 -33 25 -278 c15 -154 30 -295 36 -315 5 -19 21 -46 36 -60 l26 -24
739 -3 c805 -3 777 -4 815 53 12 18 24 103 45 326 l28 302 32 26 32 27 48 494
c27 272 46 505 43 517 -4 13 -16 30 -27 38 l-21 15 18 202 c10 112 20 224 23
251 l6 47 42 0 c73 0 135 57 135 125 0 33 -93 342 -116 387 -19 38 -48 52
-119 58 l-60 5 -22 70 c-12 39 -32 103 -44 143 -25 86 -57 128 -107 142 -46
12 -1433 12 -1477 -1z m1390 -259 c7 -20 16 -50 20 -68 l7 -32 -676 0 c-451 0
-676 3 -676 10 0 6 7 37 17 70 l16 60 640 -2 640 -3 12 -35z m283 -382 l20
-63 -951 -3 c-523 -1 -952 -1 -953 1 -3 3 18 80 31 115 3 9 196 12 919 12
l915 0 19 -62z m-132 -325 c-3 -21 -12 -121 -21 -223 -9 -102 -18 -195 -21
-207 l-4 -23 -758 0 -758 0 -17 198 c-10 108 -21 218 -24 245 l-6 47 808 0
807 0 -6 -37z m-664 -657 c83 -39 152 -105 190 -184 31 -63 33 -73 33 -177 0
-101 -2 -115 -28 -168 -77 -155 -253 -247 -419 -218 -128 22 -235 101 -293
217 -28 55 -30 67 -30 169 0 104 2 114 33 177 49 99 150 182 256 209 17 5 69
7 116 5 67 -3 97 -9 142 -30z m513 -943 c-2 -16 -12 -111 -20 -213 -9 -102
-18 -195 -21 -208 l-4 -22 -608 0 -608 0 -18 203 c-9 111 -20 217 -23 235 l-5
32 656 0 656 0 -5 -27z"/>
<path d="M1096 1581 c-158 -64 -243 -211 -214 -371 23 -124 109 -224 225 -260
82 -25 124 -25 206 0 233 72 307 373 135 550 -86 89 -242 125 -352 81z m169
-138 c-13 -32 -55 -206 -51 -210 5 -6 37 50 81 145 l38 82 47 0 48 0 -34 -105
c-18 -58 -36 -122 -40 -143 -7 -34 -6 -36 10 -23 21 18 31 8 17 -17 -14 -26
-69 -72 -86 -72 -32 0 -48 32 -41 84 l5 51 -30 -53 c-38 -65 -69 -88 -98 -72
-17 9 -21 21 -21 63 l-1 52 -16 -30 c-35 -67 -81 -102 -113 -85 -16 8 -20 21
-20 60 l0 50 44 0 c34 0 45 -4 48 -17 5 -22 65 93 99 190 l24 67 48 0 c43 0
48 -2 42 -17z"/>
</g>
</svg>
